<?xml version="1.0" encoding="UTF-8"?>
<svg version="1.1" xmlns="http://www.w3.org/2000/svg" width="128" height="128">
<path d="M0 0 C13.88237987 10.96950016 23.41603439 24.44508479 27 42 C27.43089234 45.90722161 27.52526954 49.75856637 27.5 53.6875 C27.49427979 54.73188232 27.48855957 55.77626465 27.48266602 56.85229492 C27.08535132 74.22845839 20.46265911 87.90358037 8.5703125 100.58203125 C-6.47767638 114.73811805 -22.78442983 118.61790701 -42.8125 118.33984375 C-60.03598262 117.70709081 -74.20246173 109.30170657 -86 97 C-99.43436604 80.60640713 -102.84782322 62.76688799 -101 42 C-98.51551846 25.51453542 -88.32649561 10.66474033 -75.10546875 0.8515625 C-52.98152979 -13.82498394 -22.31215912 -15.4812549 0 0 Z " fill="#2B3F76" transform="translate(101,10)"/>
<path d="M0 0 C5.85082568 4.89760127 11.48820806 10.0090916 16.98242188 15.30273438 C17.99812339 16.27137636 19.02436385 17.22908087 20.06054688 18.17578125 C28.63833128 26.02883481 28.63833128 26.02883481 29.5 30.72509766 C29.28256717 33.32021672 28.80233963 35.52703539 28 38 C27.71125 39.04929688 27.4225 40.09859375 27.125 41.1796875 C20.41260911 57.26145733 8.10739347 70.93870191 -8 78 C-14.36273428 80.00092103 -21.48871988 82.05220514 -28 80 C-30.5871582 77.86694336 -30.5871582 77.86694336 -33.30078125 75.08984375 C-33.7820195 74.60294571 -34.26325775 74.11604767 -34.75907898 73.61439514 C-36.28657021 72.06460092 -37.79952748 70.50145808 -39.3125 68.9375 C-40.3486791 67.88124806 -41.3857791 66.82589867 -42.42382812 65.77148438 C-44.95996895 63.1913578 -47.48326459 60.5990748 -50 58 C-49.06401978 57.60167969 -49.06401978 57.60167969 -48.10913086 57.1953125 C-44.86813647 55.35853642 -43.9642676 52.29280484 -42.5625 49 C-41.95946493 47.64402744 -41.35529294 46.28855993 -40.75 44.93359375 C-40.45609375 44.2669873 -40.1621875 43.60038086 -39.859375 42.91357422 C-38.04570049 38.87505693 -36.01272865 34.94198007 -34 31 C-31 32 -31 32 -29.72900391 34.20898438 C-29.31569824 35.16095703 -28.90239258 36.11292969 -28.4765625 37.09375 C-28.0125 38.12371094 -27.5484375 39.15367188 -27.0703125 40.21484375 C-26.10803347 42.40207798 -25.15227856 44.59219432 -24.203125 46.78515625 C-23.73648438 47.81511719 -23.26984375 48.84507813 -22.7890625 49.90625 C-22.37350098 50.85822266 -21.95793945 51.81019531 -21.52978516 52.79101562 C-20.16206395 55.21703306 -20.16206395 55.21703306 -17.45068359 55.94335938 C-16.64195801 55.96205078 -15.83323242 55.98074219 -15 56 C-14.34 55.34 -13.68 54.68 -13 54 C-13.11718192 48.96898948 -15.3286 45.23726556 -17.64501953 40.91674805 C-23.49280548 29.9151349 -25.35680373 21.34691391 -24 9 C-18.09169615 7.22750885 -12.18485175 6.05867531 -6.109375 4.9765625 C-2.69962436 3.90566092 -1.73395071 3.05326104 0 0 Z " fill="#1D2953" transform="translate(98,46)"/>
<path d="M0 0 C4.12872511 0.02943833 7.91431322 0.85502036 11.9375 1.75 C23.30245362 4.18727254 33.96871806 3.68248594 45.28320312 1.32666016 C50.2929419 0.29355731 54.77909637 -0.10760727 59.875 0.25 C60.875 1.25 60.875 1.25 61.0625 4.1875 C60.875 7.25 60.875 7.25 58.875 9.25 C56.81201172 9.84423828 56.81201172 9.84423828 54.3046875 10.3203125 C53.40878906 10.49433594 52.51289062 10.66835938 51.58984375 10.84765625 C50.65269531 11.02167969 49.71554688 11.19570313 48.75 11.375 C47.80511719 11.55675781 46.86023438 11.73851562 45.88671875 11.92578125 C43.55070699 12.37410674 41.21356023 12.81519868 38.875 13.25 C37.27196339 26.22002352 39.83554466 35.05602419 46.05004883 46.54321289 C46.55044678 47.47383545 47.05084473 48.40445801 47.56640625 49.36328125 C48.03248291 50.18610596 48.49855957 51.00893066 48.97875977 51.85668945 C50.07625808 54.78743748 49.85140938 56.30589797 48.875 59.25 C46.875 61.25 46.875 61.25 44.5390625 61.3828125 C40.32068411 59.58907389 39.18677945 56.11877279 37.25 52.125 C36.8684375 51.37734375 36.486875 50.6296875 36.09375 49.859375 C33.83812229 45.39478774 31.79765929 40.86683155 29.875 36.25 C29.215 36.25 28.555 36.25 27.875 36.25 C27.58254395 36.93626465 27.29008789 37.6225293 26.98876953 38.32958984 C25.66413773 41.43020557 24.3321689 44.52761555 23 47.625 C22.30970703 49.24535156 22.30970703 49.24535156 21.60546875 50.8984375 C21.16074219 51.9296875 20.71601562 52.9609375 20.2578125 54.0234375 C19.84934082 54.97653809 19.44086914 55.92963867 19.02001953 56.91162109 C17.875 59.25 17.875 59.25 15.875 61.25 C13.375 61.5 13.375 61.5 10.875 61.25 C8.875 59.25 8.875 59.25 8.44140625 56.765625 C9.0768548 51.61333944 11.47631332 47.58868191 13.8125 43 C18.72101048 32.91376444 20.34258153 24.3894424 19.875 13.25 C18.51568359 13.08564453 18.51568359 13.08564453 17.12890625 12.91796875 C-0.78923358 10.58576642 -0.78923358 10.58576642 -4.125 7.25 C-4.25 4.25 -4.25 4.25 -4.125 1.25 C-3.125 0.25 -3.125 0.25 0 0 Z " fill="#73DDE8" transform="translate(36.125,41.75)"/>
<path d="M0 0 C2.5 2.125 2.5 2.125 4 5 C4 8.92016134 3.55226285 11.17160572 1.375 14.4375 C-2.00237979 16.65946039 -4.03523594 16.62601538 -8 16 C-11.38677089 13.54999553 -12.78698584 12.13607554 -13.5625 8 C-12.87642343 4.34092496 -11.57265686 2.64832324 -9 0 C-5.77839187 -1.61080407 -3.42436421 -0.82657067 0 0 Z " fill="#71D9E5" transform="translate(69,27)"/>
<path d="M0 0 C1.85476817 0.11573266 3.70881274 0.24308115 5.5625 0.375 C7.11130859 0.47941406 7.11130859 0.47941406 8.69140625 0.5859375 C12 1 12 1 19 3 C19 8.28 19 13.56 19 19 C14.27100612 15.13082319 9.88730678 10.99697964 5.5625 6.6875 C5.01819336 6.14770508 4.47388672 5.60791016 3.91308594 5.05175781 C0 1.12372693 0 1.12372693 0 0 Z " fill="#1A2752" transform="translate(36,52)"/>
<path d="M0 0 C1.08839774 0.88967344 2.17044608 1.78711574 3.25 2.6875 C4.15492187 3.43580078 4.15492187 3.43580078 5.078125 4.19921875 C7.3109424 6.2913505 9.13539658 8.57849069 11 11 C-3.68181818 14.70909091 -3.68181818 14.70909091 -9 14 C-9.66 13.01 -10.32 12.02 -11 11 C-9.3603125 10.62875 -9.3603125 10.62875 -7.6875 10.25 C-3.87478436 8.95755402 -2.79352034 8.48740066 -1 5 C-0.28566879 2.35065178 -0.28566879 2.35065178 0 0 Z " fill="#1B2A54" transform="translate(73,32)"/>
<path d="M0 0 C-1.61010527 4.07376031 -4.53822271 6.76507069 -7.625 9.75 C-8.140625 10.25660156 -8.65625 10.76320313 -9.1875 11.28515625 C-10.45383339 12.52803902 -11.7263144 13.76465276 -13 15 C-13 11.30165104 -12.18635778 10.72918572 -9.75 8.0625 C-9.11191406 7.36253906 -8.47382813 6.66257812 -7.81640625 5.94140625 C-7.21699219 5.30074219 -6.61757813 4.66007812 -6 4 C-5.236875 3.175 -4.47375 2.35 -3.6875 1.5 C-2 0 -2 0 0 0 Z " fill="#495B8A" transform="translate(25,13)"/>
</svg>
