<?xml version="1.0" encoding="UTF-8"?>
<svg version="1.1" xmlns="http://www.w3.org/2000/svg" width="128" height="128">
<path d="M0 0 C13.88237987 10.96950016 23.41603439 24.44508479 27 42 C27.43089234 45.90722161 27.52526954 49.75856637 27.5 53.6875 C27.49427979 54.73188232 27.48855957 55.77626465 27.48266602 56.85229492 C27.08535132 74.22845839 20.46265911 87.90358037 8.5703125 100.58203125 C-6.47767638 114.73811805 -22.78442983 118.61790701 -42.8125 118.33984375 C-60.03598262 117.70709081 -74.20246173 109.30170657 -86 97 C-99.43436604 80.60640713 -102.84782322 62.76688799 -101 42 C-98.56770475 25.86081097 -88.80889105 11.41004573 -75.94921875 1.6953125 C-53.93043094 -13.91795174 -22.63983954 -15.70861542 0 0 Z " fill="#0795D4" transform="translate(101,10)"/>
<path d="M0 0 C5.85082568 4.89760127 11.48820806 10.0090916 16.98242188 15.30273438 C17.99812339 16.27137636 19.02436385 17.22908087 20.06054688 18.17578125 C28.63833128 26.02883481 28.63833128 26.02883481 29.5 30.72509766 C29.28256717 33.32021672 28.80233963 35.52703539 28 38 C27.71125 39.04929688 27.4225 40.09859375 27.125 41.1796875 C20.29526112 57.54260356 8.08825994 70.47139468 -8 78 C-21.24686155 82.85391865 -21.24686155 82.85391865 -27 81 C-28.99879725 79.34001282 -30.73393413 77.73392665 -32.51953125 75.87109375 C-33.27468269 75.10745262 -33.27468269 75.10745262 -34.04508972 74.3283844 C-35.64389465 72.70726789 -37.22819606 71.07277866 -38.8125 69.4375 C-39.89685713 68.33307117 -40.98213408 67.22954463 -42.06835938 66.12695312 C-44.72300912 63.42830552 -47.36474126 60.71758089 -50 58 C-49.06401978 57.60167969 -49.06401978 57.60167969 -48.10913086 57.1953125 C-44.86813647 55.35853642 -43.9642676 52.29280484 -42.5625 49 C-41.95946493 47.64402744 -41.35529294 46.28855993 -40.75 44.93359375 C-40.45609375 44.2669873 -40.1621875 43.60038086 -39.859375 42.91357422 C-38.04570049 38.87505693 -36.01272865 34.94198007 -34 31 C-31 32 -31 32 -29.72900391 34.20898438 C-29.31569824 35.16095703 -28.90239258 36.11292969 -28.4765625 37.09375 C-28.0125 38.12371094 -27.5484375 39.15367188 -27.0703125 40.21484375 C-26.10803347 42.40207798 -25.15227856 44.59219432 -24.203125 46.78515625 C-23.73648438 47.81511719 -23.26984375 48.84507813 -22.7890625 49.90625 C-22.37350098 50.85822266 -21.95793945 51.81019531 -21.52978516 52.79101562 C-20.16206395 55.21703306 -20.16206395 55.21703306 -17.45068359 55.94335938 C-16.64195801 55.96205078 -15.83323242 55.98074219 -15 56 C-14.34 55.34 -13.68 54.68 -13 54 C-13.11718192 48.96898948 -15.3286 45.23726556 -17.64501953 40.91674805 C-23.49280548 29.9151349 -25.35680373 21.34691391 -24 9 C-18.09169615 7.22750885 -12.18485175 6.05867531 -6.109375 4.9765625 C-2.69962436 3.90566092 -1.73395071 3.05326104 0 0 Z " fill="#08719B" transform="translate(98,46)"/>
<path d="M0 0 C4.14642747 0.02961734 7.95817862 0.85743111 12 1.75 C23.34060293 4.16966665 33.60771371 3.50757417 44.87451172 1.32666016 C50.01096677 0.34303317 54.66397646 -0.12221597 59.875 0.25 C60.875 1.25 60.875 1.25 61.0625 4.1875 C60.875 7.25 60.875 7.25 58.875 9.25 C56.81201172 9.84423828 56.81201172 9.84423828 54.3046875 10.3203125 C53.40878906 10.49433594 52.51289062 10.66835938 51.58984375 10.84765625 C50.65269531 11.02167969 49.71554688 11.19570313 48.75 11.375 C47.80511719 11.55675781 46.86023438 11.73851562 45.88671875 11.92578125 C43.55070699 12.37410674 41.21356023 12.81519868 38.875 13.25 C37.27196339 26.22002352 39.83554466 35.05602419 46.05004883 46.54321289 C46.55044678 47.47383545 47.05084473 48.40445801 47.56640625 49.36328125 C48.03248291 50.18610596 48.49855957 51.00893066 48.97875977 51.85668945 C50.07625808 54.78743748 49.85140938 56.30589797 48.875 59.25 C46.875 61.25 46.875 61.25 44.50390625 61.3125 C40.64291359 59.75203937 39.53451244 56.8213749 37.8125 53.25 C37.46960938 52.57316162 37.12671875 51.89632324 36.7734375 51.19897461 C34.30865992 46.28874874 32.00708811 41.31370926 29.875 36.25 C29.215 36.25 28.555 36.25 27.875 36.25 C27.58254395 36.93626465 27.29008789 37.6225293 26.98876953 38.32958984 C25.66413773 41.43020557 24.3321689 44.52761555 23 47.625 C22.30970703 49.24535156 22.30970703 49.24535156 21.60546875 50.8984375 C21.16074219 51.9296875 20.71601562 52.9609375 20.2578125 54.0234375 C19.84934082 54.97653809 19.44086914 55.92963867 19.02001953 56.91162109 C17.875 59.25 17.875 59.25 15.875 61.25 C13.375 61.5 13.375 61.5 10.875 61.25 C8.875 59.25 8.875 59.25 8.47265625 56.76171875 C9.05181816 51.70670361 11.13625638 47.6230348 13.3125 43.0625 C14.1455264 41.27780791 14.97759997 39.49267068 15.80859375 37.70703125 C16.18040771 36.92303955 16.55222168 36.13904785 16.93530273 35.33129883 C18.33047826 32.24117895 19.01473325 29.59506829 19.19140625 26.23828125 C19.23330078 25.48095703 19.27519531 24.72363281 19.31835938 23.94335938 C19.35767578 23.15767578 19.39699219 22.37199219 19.4375 21.5625 C19.48068359 20.76521484 19.52386719 19.96792969 19.56835938 19.14648438 C19.67427368 17.18118553 19.77512551 15.21561504 19.875 13.25 C19.12476562 13.12882812 18.37453125 13.00765625 17.6015625 12.8828125 C12.47790432 12.0439264 7.35605252 11.19058862 2.25 10.25 C1.05503906 10.0334375 1.05503906 10.0334375 -0.1640625 9.8125 C-2.125 9.25 -2.125 9.25 -4.125 7.25 C-4.3125 4.1875 -4.3125 4.1875 -4.125 1.25 C-3.125 0.25 -3.125 0.25 0 0 Z " fill="#F8FAFB" transform="translate(36.125,41.75)"/>
<path d="M0 0 C2.13768008 1.60079729 2.89497329 2.48622071 3.43359375 5.12109375 C3.43994339 8.88642847 3.4311636 11.29289169 1.4375 14.5625 C-1.99917081 16.58925458 -4.07417186 16.6198676 -8 16 C-11.38677089 13.54999553 -12.78698584 12.13607554 -13.5625 8 C-12.87642343 4.34092496 -11.57265686 2.64832324 -9 0 C-5.85000502 -1.57499749 -3.36459118 -0.70833498 0 0 Z " fill="#F5F8FB" transform="translate(69,27)"/>
<path d="M0 0 C2.02167552 0.28577068 4.04230888 0.57891787 6.0625 0.875 C7.75052734 1.11863281 7.75052734 1.11863281 9.47265625 1.3671875 C13.0330064 2.00592141 16.52198376 3.00628108 20 4 C20 9.28 20 14.56 20 20 C15.07809171 15.99379558 10.55349248 11.66383798 6.0625 7.1875 C5.47057861 6.60009033 4.87865723 6.01268066 4.26879883 5.4074707 C0 1.12370457 0 1.12370457 0 0 Z " fill="#07719A" transform="translate(35,51)"/>
<path d="M0 0 C4.13621084 3.3810038 7.81316569 6.66590534 11 11 C6.47849025 12.71121754 2.44382847 13.35223612 -2.375 13.625 C-4.24285156 13.73714844 -4.24285156 13.73714844 -6.1484375 13.8515625 C-7.55996094 13.92503906 -7.55996094 13.92503906 -9 14 C-9.66 13.01 -10.32 12.02 -11 11 C-9.3603125 10.62875 -9.3603125 10.62875 -7.6875 10.25 C-3.87478436 8.95755402 -2.79352034 8.48740066 -1 5 C-0.28566879 2.35065178 -0.28566879 2.35065178 0 0 Z " fill="#0B739C" transform="translate(73,32)"/>
</svg>
