<?xml version="1.0" encoding="UTF-8"?>
<svg version="1.1" xmlns="http://www.w3.org/2000/svg" width="128" height="128">
<path d="M0 0 C11.11394425 10.66435103 19.30390427 25.46071937 19.9609375 41.04296875 C20.12880222 51.93191728 20.06660168 61.58103584 15.625 71.6875 C15.26277344 72.56148438 14.90054688 73.43546875 14.52734375 74.3359375 C6.97740342 90.97139925 -6.81346392 101.16051908 -23.375 107.6875 C-36.64582534 112.53832736 -55.57059194 111.63114396 -68.375 105.6875 C-69.45523438 105.20152344 -70.53546875 104.71554688 -71.6484375 104.21484375 C-86.97013867 96.66113793 -97.87611585 84.57902164 -103.875 68.625 C-108.63009085 54.33771315 -108.43487194 36.50161597 -102.375 22.6875 C-102.024375 21.82511719 -101.67375 20.96273437 -101.3125 20.07421875 C-94.4661729 4.78884263 -81.61487298 -5.98726089 -66.375 -12.3125 C-43.52966286 -20.31305583 -18.47136385 -15.81662926 0 0 Z " fill="#E2DDBE" transform="translate(107.375,16.3125)"/>
<path d="M0 0 C10.21536464 9.80212174 18.98033271 24.04275145 19.77954102 38.47900391 C19.82100315 41.55117454 19.79998251 44.61549821 19.75 47.6875 C19.74097656 48.74839844 19.73195313 49.80929688 19.72265625 50.90234375 C19.69927524 53.49763638 19.66650556 56.09244465 19.625 58.6875 C19.295 58.6875 18.965 58.6875 18.625 58.6875 C18.60727539 57.69403564 18.58955078 56.70057129 18.57128906 55.67700195 C17.79408127 50.37110257 14.19327658 47.45031545 10.484375 43.85546875 C9.76517883 43.13764725 9.04598267 42.41982574 8.30499268 41.68025208 C6.78543725 40.16973795 5.25861858 38.66649994 3.72509766 37.17016602 C1.38125035 34.88110426 -0.93767532 32.56892155 -3.25390625 30.25195312 C-4.73557135 28.785035 -6.21859968 27.31949226 -7.703125 25.85546875 C-8.39601624 25.16591599 -9.08890747 24.47636322 -9.80279541 23.76591492 C-13.15552131 20.51084796 -15.80595371 18.06717893 -20.375 16.6875 C-22.27023676 15.19451758 -23.97464977 13.58647374 -25.7265625 11.9296875 C-27.43030636 10.38659237 -27.43030636 10.38659237 -30.375 10.6875 C-31.035 12.0075 -31.695 13.3275 -32.375 14.6875 C-35.14787721 13.51435964 -37.19861288 12.03339066 -39.4375 10.0625 C-42.13423113 7.37313893 -42.13423113 7.37313893 -45.375 7.6875 C-45.705 11.6475 -46.035 15.6075 -46.375 19.6875 C-53.15056818 13.93465909 -53.15056818 13.93465909 -54.91796875 11.98828125 C-56.42245402 10.35451199 -56.42245402 10.35451199 -59.375 10.6875 C-58.94816761 12.27374235 -58.50803842 13.8564098 -58.0625 15.4375 C-57.81886719 16.31921875 -57.57523438 17.2009375 -57.32421875 18.109375 C-56.49564776 20.7396905 -56.49564776 20.7396905 -54.76953125 22.828125 C-53.375 24.6875 -53.375 24.6875 -53.375 27.6875 C-54.2825 28.285625 -55.19 28.88375 -56.125 29.5 C-59.81280315 31.9821752 -61.15311163 33.92738123 -63.375 37.6875 C-63.94347656 37.40003906 -64.51195312 37.11257812 -65.09765625 36.81640625 C-72.92541452 32.83318606 -72.92541452 32.83318606 -81.375 30.6875 C-80.88 31.47125 -80.385 32.255 -79.875 33.0625 C-78.375 35.6875 -78.375 35.6875 -78.375 37.6875 C-77.7975 37.914375 -77.22 38.14125 -76.625 38.375 C-74.375 39.6875 -74.375 39.6875 -70.375 44.6875 C-76.81 45.1825 -76.81 45.1825 -83.375 45.6875 C-82.34351752 49.81342993 -81.75213898 50.65820497 -78.8125 53.4375 C-78.17183594 54.05109375 -77.53117187 54.6646875 -76.87109375 55.296875 C-76.37738281 55.75578125 -75.88367188 56.2146875 -75.375 56.6875 C-77.00912443 58.39590281 -78.24406094 59.62203047 -80.375 60.6875 C-79.66522269 65.13090045 -77.29509162 66.90345096 -74.06640625 69.80859375 C-72.375 71.6875 -72.375 71.6875 -71.71899414 73.83911133 C-69.71445918 78.08741457 -66.51994495 80.89055777 -63.1796875 84.140625 C-62.47224396 84.84145203 -61.76480042 85.54227905 -61.03591919 86.26434326 C-58.78094414 88.49595118 -56.51603193 90.71712513 -54.25 92.9375 C-51.97861357 95.17388301 -49.70936194 97.41237517 -47.44265747 99.65350342 C-46.03242735 101.04668364 -44.61913704 102.43677394 -43.2026062 103.82354736 C-42.56839752 104.44799744 -41.93418884 105.07244751 -41.28076172 105.71582031 C-40.71831757 106.26699524 -40.15587341 106.81817017 -39.5763855 107.38604736 C-38.375 108.6875 -38.375 108.6875 -38.375 109.6875 C-57.01566967 110.49116959 -72.51750342 106.51492398 -87.125 94.125 C-98.12383744 83.55969338 -106.24682878 69.11236174 -106.61328125 53.625 C-106.81853976 42.60884087 -106.86378173 32.92015045 -102.375 22.6875 C-102.024375 21.82511719 -101.67375 20.96273437 -101.3125 20.07421875 C-94.4661729 4.78884263 -81.61487298 -5.98726089 -66.375 -12.3125 C-43.52966286 -20.31305583 -18.47136385 -15.81662926 0 0 Z " fill="#F6F5DB" transform="translate(107.375,16.3125)"/>
<path d="M0 0 C5.50863019 3.06132474 8.89792531 7.42085061 11.6875 13 C12.32235072 20.93043033 12.77872116 28.48576671 7.6875 35 C2.26145285 40.5493664 -3.57070431 43.05948226 -11.25 43.5 C-17.49821738 43.28852187 -22.29225246 40.74157133 -26.87890625 36.578125 C-31.32415176 31.64191208 -33.96886854 25.88405413 -33.65625 19.17578125 C-32.53599545 12.08507918 -29.88282069 6.50068187 -24.0859375 2.18359375 C-23.50070313 1.79300781 -22.91546875 1.40242188 -22.3125 1 C-20.95125 0.071875 -20.95125 0.071875 -19.5625 -0.875 C-12.84226616 -3.20123479 -6.49667524 -2.90047643 0 0 Z " fill="#F6D14C" transform="translate(74.3125,43)"/>
<path d="M0 0 C9.06001044 1.13250131 13.8379101 2.80007682 19.5 9.9375 C23.16962779 15.93323065 22.92948825 22.20512039 22 29 C20.3335477 34.92516374 17.11614167 38.5564431 12 42 C7.82488268 43.99889787 4.6730974 45 0 45 C0 30.15 0 15.3 0 0 Z " fill="#F4B036" transform="translate(64,41)"/>
<path d="M0 0 C1.79244141 0.01740234 1.79244141 0.01740234 3.62109375 0.03515625 C5.41740234 0.04869141 5.41740234 0.04869141 7.25 0.0625 C8.17683594 0.07410156 9.10367188 0.08570313 10.05859375 0.09765625 C10.62109375 2.03515625 10.62109375 2.03515625 11.05859375 4.09765625 C10.05859375 5.09765625 10.05859375 5.09765625 7.1171875 5.1953125 C5.32474609 5.17791016 5.32474609 5.17791016 3.49609375 5.16015625 C1.69978516 5.14662109 1.69978516 5.14662109 -0.1328125 5.1328125 C-1.05964844 5.12121094 -1.98648438 5.10960938 -2.94140625 5.09765625 C-3.50390625 3.16015625 -3.50390625 3.16015625 -3.94140625 1.09765625 C-2.94140625 0.09765625 -2.94140625 0.09765625 0 0 Z " fill="#E77A34" transform="translate(93.94140625,60.90234375)"/>
<path d="M0 0 C1.79244141 0.01740234 1.79244141 0.01740234 3.62109375 0.03515625 C5.41740234 0.04869141 5.41740234 0.04869141 7.25 0.0625 C8.17683594 0.07410156 9.10367188 0.08570313 10.05859375 0.09765625 C10.62109375 2.03515625 10.62109375 2.03515625 11.05859375 4.09765625 C10.05859375 5.09765625 10.05859375 5.09765625 7.1171875 5.1953125 C5.32474609 5.17791016 5.32474609 5.17791016 3.49609375 5.16015625 C1.69978516 5.14662109 1.69978516 5.14662109 -0.1328125 5.1328125 C-1.05964844 5.12121094 -1.98648437 5.10960938 -2.94140625 5.09765625 C-3.50390625 3.16015625 -3.50390625 3.16015625 -3.94140625 1.09765625 C-2.94140625 0.09765625 -2.94140625 0.09765625 0 0 Z " fill="#F29D40" transform="translate(26.94140625,60.90234375)"/>
<path d="M0 0 C3.21524305 1.40844718 5.32183868 3.10344786 7.75 5.625 C8.67039062 6.57246094 8.67039062 6.57246094 9.609375 7.5390625 C10.29773438 8.26222656 10.29773438 8.26222656 11 9 C10.67 9.99 10.34 10.98 10 12 C5.44467216 11.73203954 3.11441418 9.82300375 0.09375 6.6328125 C-1 5 -1 5 -0.875 2.125 C-0.58625 1.42375 -0.2975 0.7225 0 0 Z " fill="#F39F46" transform="translate(36,34)"/>
<path d="M0 0 C1.859375 0.23046875 1.859375 0.23046875 4 1 C5.265625 2.92578125 5.265625 2.92578125 6.25 5.3125 C6.58515625 6.09238281 6.9203125 6.87226562 7.265625 7.67578125 C8 10 8 10 8 14 C6.68 14 5.36 14 4 14 C3.13116294 12.42466914 2.28040932 10.83935491 1.4375 9.25 C0.96183594 8.36828125 0.48617187 7.4865625 -0.00390625 6.578125 C-1.07998186 3.79298812 -1.06528748 2.73019786 0 0 Z " fill="#F4B240" transform="translate(73,87)"/>
<path d="M0 0 C1.32 0.33 2.64 0.66 4 1 C3.32116957 4.11547441 2.25893098 6.85137721 0.9375 9.75 C0.39416016 10.94882813 0.39416016 10.94882813 -0.16015625 12.171875 C-0.43730469 12.77515625 -0.71445312 13.3784375 -1 14 C-2.32 13.67 -3.64 13.34 -5 13 C-4.39254603 8.14036821 -2.27241033 4.2594482 0 0 Z " fill="#F7D354" transform="translate(52,87)"/>
<path d="M0 0 C-0.15404113 5.08335725 -3.02068432 7.35754718 -6.50390625 10.64453125 C-6.99761719 11.09183594 -7.49132813 11.53914063 -8 12 C-8.99 11.67 -9.98 11.34 -11 11 C-10.72943538 6.40040149 -8.74396837 4.275978 -5.66796875 1.13671875 C-4 0 -4 0 0 0 Z " fill="#F29D41" transform="translate(46,81)"/>
<path d="M0 0 C-0.26796046 4.55532784 -2.17699625 6.88558582 -5.3671875 9.90625 C-7 11 -7 11 -9.875 10.875 C-10.926875 10.441875 -10.926875 10.441875 -12 10 C-9.83740258 4.3772467 -6.06961337 0 0 0 Z " fill="#E87B38" transform="translate(93,35)"/>
<path d="M0 0 C1.32 0.33 2.64 0.66 4 1 C3.54803755 2.60597325 3.08817673 4.20972508 2.625 5.8125 C2.36976562 6.70582031 2.11453125 7.59914063 1.8515625 8.51953125 C1 11 1 11 -1 14 C-2.32 13.67 -3.64 13.34 -5 13 C-4.54554036 11.58208592 -4.08625056 10.16571954 -3.625 8.75 C-3.24214844 7.56664062 -3.24214844 7.56664062 -2.8515625 6.359375 C-2.04826333 4.13372042 -1.10288338 2.09068328 0 0 Z " fill="#F5B23E" transform="translate(77,26)"/>
<path d="M0 0 C1.85546875 0.23046875 1.85546875 0.23046875 4 1 C5.30078125 2.92578125 5.30078125 2.92578125 6.3125 5.3125 C6.65925781 6.09238281 7.00601563 6.87226562 7.36328125 7.67578125 C8.06437764 10.23499813 7.87573233 11.53099982 7 14 C5.14453125 13.8046875 5.14453125 13.8046875 3 13 C1.69921875 10.8203125 1.69921875 10.8203125 0.6875 8.125 C0.16736328 6.79855469 0.16736328 6.79855469 -0.36328125 5.4453125 C-1 3 -1 3 0 0 Z " fill="#F7D252" transform="translate(48,26)"/>
<path d="M0 0 C0 1.32 0 2.64 0 4 C-9.41002278 8.59225513 -9.41002278 8.59225513 -14 8 C-13.76953125 6.140625 -13.76953125 6.140625 -13 4 C-11.07421875 2.734375 -11.07421875 2.734375 -8.6875 1.75 C-7.90761719 1.41484375 -7.12773438 1.0796875 -6.32421875 0.734375 C-4 0 -4 0 0 0 Z " fill="#F7D251" transform="translate(40,72)"/>
<path d="M0 0 C-0.23046875 1.859375 -0.23046875 1.859375 -1 4 C-2.92578125 5.265625 -2.92578125 5.265625 -5.3125 6.25 C-6.09238281 6.58515625 -6.87226562 6.9203125 -7.67578125 7.265625 C-10 8 -10 8 -14 8 C-14 6.68 -14 5.36 -14 4 C-4.58997722 -0.59225513 -4.58997722 -0.59225513 0 0 Z " fill="#F4B23B" transform="translate(102,47)"/>
<path d="M0 0 C5.27749285 0.53851968 9.25645564 1.77343836 14 4 C14 5.32 14 6.64 14 8 C9.06836837 7.50683684 5.20336004 6.70216003 1 4 C0.125 1.8125 0.125 1.8125 0 0 Z " fill="#F7D151" transform="translate(26,47)"/>
<path d="M0 0 C5.34844008 0.53484401 9.35796103 2.46690767 14 5 C14 5.99 14 6.98 14 8 C8.58609132 7.53328373 4.79482068 6.75702189 0 4 C0 2.68 0 1.36 0 0 Z " fill="#F5B23B" transform="translate(88,72)"/>
<path d="M0 0 C3.51149841 0.58395206 5.29031758 1.83279645 7.8125 4.3125 C8.43769531 4.90675781 9.06289062 5.50101562 9.70703125 6.11328125 C11 8 11 8 10.69921875 10.23046875 C10.46847656 10.81441406 10.23773438 11.39835937 10 12 C5.94273992 10.43951536 2.52376385 7.5164443 0 4 C0 2.68 0 1.36 0 0 Z " fill="#E6752E" transform="translate(82,81)"/>
<path d="M0 0 C0.99 0.33 1.98 0.66 3 1 C3 5.62 3 10.24 3 15 C1.68 15 0.36 15 -1 15 C-1.02685412 12.68756208 -1.04632841 10.3750373 -1.0625 8.0625 C-1.07410156 6.77472656 -1.08570313 5.48695312 -1.09765625 4.16015625 C-1 1 -1 1 0 0 Z " fill="#ED8834" transform="translate(63,89)"/>
<path d="M0 0 C1.32 0.33 2.64 0.66 4 1 C4 5.29 4 9.58 4 14 C2.68 14.33 1.36 14.66 0 15 C0 10.05 0 5.1 0 0 Z " fill="#EE8733" transform="translate(62,23)"/>
<path d="" fill="#FDFAFE" transform="translate(0,0)"/>
</svg>
